<svg width="379" height="385" viewBox="0 0 379 385" fill="none" xmlns="http://www.w3.org/2000/svg">
<path d="M189 153.5C235.644 153.5 277.858 157.471 308.398 163.887C323.673 167.095 336 170.91 344.497 175.13C348.746 177.24 352.011 179.439 354.208 181.694C356.403 183.948 357.5 186.222 357.5 188.5C357.5 190.778 356.403 193.052 354.208 195.306C352.011 197.561 348.746 199.76 344.497 201.87C336 206.09 323.673 209.905 308.398 213.113C277.858 219.529 235.644 223.5 189 223.5C142.356 223.5 100.142 219.529 69.6016 213.113C54.3275 209.905 41.9997 206.09 33.5029 201.87C29.2539 199.76 25.9887 197.561 23.792 195.306C21.597 193.052 20.5 190.778 20.5 188.5C20.5 186.222 21.597 183.948 23.792 181.694C25.9887 179.439 29.2539 177.24 33.5029 175.13C41.9997 170.91 54.3275 167.095 69.6016 163.887C100.142 157.471 142.356 153.5 189 153.5Z" stroke="#B9FF66"/>
<path d="M189 178.5C235.644 178.5 277.858 182.471 308.398 188.887C323.673 192.095 336 195.91 344.497 200.13C348.746 202.24 352.011 204.439 354.208 206.694C356.403 208.948 357.5 211.222 357.5 213.5C357.5 215.778 356.403 218.052 354.208 220.306C352.011 222.561 348.746 224.76 344.497 226.87C336 231.09 323.673 234.905 308.398 238.113C277.858 244.529 235.644 248.5 189 248.5C142.356 248.5 100.142 244.529 69.6016 238.113C54.3275 234.905 41.9997 231.09 33.5029 226.87C29.2539 224.76 25.9887 222.561 23.792 220.306C21.597 218.052 20.5 215.778 20.5 213.5C20.5 211.222 21.597 208.948 23.792 206.694C25.9887 204.439 29.2539 202.24 33.5029 200.13C41.9997 195.91 54.3275 192.095 69.6016 188.887C100.142 182.471 142.356 178.5 189 178.5Z" stroke="#B9FF66"/>
<path d="M189 203.5C235.644 203.5 277.858 207.471 308.398 213.887C323.673 217.095 336 220.91 344.497 225.13C348.746 227.24 352.011 229.439 354.208 231.694C356.403 233.948 357.5 236.222 357.5 238.5C357.5 240.778 356.403 243.052 354.208 245.306C352.011 247.561 348.746 249.76 344.497 251.87C336 256.09 323.673 259.905 308.398 263.113C277.858 269.529 235.644 273.5 189 273.5C142.356 273.5 100.142 269.529 69.6016 263.113C54.3275 259.905 41.9997 256.09 33.5029 251.87C29.2539 249.76 25.9887 247.561 23.792 245.306C21.597 243.052 20.5 240.778 20.5 238.5C20.5 236.222 21.597 233.948 23.792 231.694C25.9887 229.439 29.2539 227.24 33.5029 225.13C41.9997 220.91 54.3275 217.095 69.6016 213.887C100.142 207.471 142.356 203.5 189 203.5Z" stroke="#B9FF66"/>
<path d="M116.343 66.6289L116.511 67.5342L117.179 66.9004L164.312 22.1758L136.341 80.8232L135.944 81.6543L136.857 81.5342L201.277 73.0547L144.177 104.061L143.367 104.5L144.177 104.939L201.277 135.944L136.857 127.466L135.944 127.346L136.341 128.177L164.312 186.823L117.179 142.1L116.511 141.466L116.343 142.371L104.5 206.259L92.6572 142.371L92.4893 141.466L91.8213 142.1L44.6875 186.823L72.6592 128.177L73.0557 127.346L72.1426 127.466L7.72168 135.944L64.8232 104.939L65.6328 104.5L64.8232 104.061L7.72168 73.0547L72.1426 81.5342L73.0557 81.6543L72.6592 80.8232L44.6875 22.1758L91.8213 66.9004L92.4893 67.5342L92.6572 66.6289L104.5 2.74023L116.343 66.6289Z" fill="#D9D9D9" stroke="#BDBDBD"/>
<path d="M314.324 212.244L314.494 212.674L314.936 212.538L360.046 198.722L336.538 239.628L336.309 240.028L336.689 240.289L375.616 266.943L328.979 274.068L328.522 274.139L328.557 274.6L331.987 321.652L297.339 289.633L297 289.319L296.661 289.633L262.012 321.652L265.443 274.6L265.478 274.139L265.021 274.068L218.383 266.943L257.311 240.289L257.691 240.028L257.462 239.628L233.953 198.722L279.064 212.538L279.506 212.674L279.676 212.244L297 168.36L314.324 212.244Z" fill="#050505" stroke="#B9FF66"/>
<path d="M132.194 296.102L155.134 254L178.258 296.102L220.269 319.134L178.258 342.166L155.134 384.269L132.194 342.166L90 319.134L132.194 296.102Z" fill="white"/>
<circle cx="172.5" cy="176.5" r="62" fill="#B9FF66" stroke="#B9FF66"/>
<ellipse cx="152" cy="163" rx="10" ry="20" fill="white"/>
<ellipse cx="193" cy="163" rx="10" ry="20" fill="white"/>
</svg>
