<svg id="Layer_2" data-name="Layer 2" xmlns="http://www.w3.org/2000/svg" viewBox="0 0 686.222 689.368" style="width: 100%; height: 100%;">
  <g id="Layer_1-2" data-name="Layer 1">
    <g>
      <line x1="182.864" y1="491.026" x2="219.252" y2="686.319" fill="#fff" stroke="#000" stroke-linecap="round" stroke-linejoin="round" stroke-width="1.5"></line>
      <g>
        <g>
          <rect x="106.594" y="44.147" width="205.738" height="254.444" transform="translate(418.925 342.739) rotate(180)" fill="#fff" stroke="#b7b7b7" stroke-linecap="round" stroke-linejoin="round" stroke-width="1.5"></rect>
          <line x1="209.463" y1="298.592" x2="209.463" y2="44.147" fill="#fff" stroke="#b7b7b7" stroke-linecap="round" stroke-linejoin="round" stroke-width="1.5"></line>
          <line x1="106.594" y1="219.365" x2="310.382" y2="219.365" fill="#fff" stroke="#b7b7b7" stroke-linecap="round" stroke-linejoin="round" stroke-width="1.5"></line>
        </g>
        <line x1="244.65" y1="236.914" x2="285.38" y2="143.392" fill="#fff" stroke="#b7b7b7" stroke-linecap="round" stroke-linejoin="round" stroke-width="1.5"></line>
        <line x1="260.381" y1="140.397" x2="280.599" y2="93.762" fill="#fff" stroke="#b7b7b7" stroke-linecap="round" stroke-linejoin="round" stroke-width="1.5"></line>
      </g>
      <path d="m300.75,373.474l25.192-88.173c.478-1.673,2.007-2.827,3.747-2.827h123.823c3.133,0,5.401,2.99,5.558,6.007l-25.321,89.993-2.376.277-8.291.396" stroke="#000" stroke-linecap="round" stroke-linejoin="round" stroke-width="1.5"></path>
      <path d="m430.75,375.474l24.883-89.006c.561-2.006-.947-3.994-3.03-3.994h-125.913c-1.74,0-3.269,1.154-3.747,2.827l-25.192,88.173" fill="#fff" stroke="#000" stroke-linecap="round" stroke-linejoin="round" stroke-width="1.5"></path>
      <path d="m428.944,368.568l23.155-80.659c.316-1.113-.52-2.219-1.676-2.219h-122.814c-1.081,0-2.033.714-2.335,1.753l-23.779,81.031,127.448.094Z" fill="#fff" stroke="#000" stroke-linecap="round" stroke-linejoin="round" stroke-width="1.5"></path>
      <rect x="466.471" y="377.147" width="135.978" height="17.992" stroke="#000" stroke-linecap="round" stroke-linejoin="round" stroke-width="1.5"></rect>
      <g>
        <rect x="360.75" y="370.474" width="8" height="6" rx="3" ry="3" fill="#fff" stroke="#000" stroke-linecap="round" stroke-linejoin="round" stroke-width="1.5"></rect>
        <rect x="370.75" y="370.474" width="8" height="6" rx="3" ry="3" fill="#fff" stroke="#000" stroke-linecap="round" stroke-linejoin="round" stroke-width="1.5"></rect>
        <rect x="380.75" y="370.474" width="8" height="6" rx="3" ry="3" fill="#fff" stroke="#000" stroke-linecap="round" stroke-linejoin="round" stroke-width="1.5"></rect>
        <rect x="284.75" y="370.474" width="8" height="6" rx="3" ry="3" fill="#fff" stroke="#000" stroke-linecap="round" stroke-linejoin="round" stroke-width="1.5"></rect>
        <rect x="274.75" y="370.474" width="8" height="6" rx="3" ry="3" fill="#fff" stroke="#000" stroke-linecap="round" stroke-linejoin="round" stroke-width="1.5"></rect>
        <rect x="294.75" y="370.474" width="8" height="6" rx="3" ry="3" fill="#fff" stroke="#000" stroke-linecap="round" stroke-linejoin="round" stroke-width="1.5"></rect>
        <rect x="344.75" y="370.474" width="8" height="6" rx="3" ry="3" fill="#fff" stroke="#000" stroke-linecap="round" stroke-linejoin="round" stroke-width="1.5"></rect>
        <path d="m339.75,376.474h-2c-1.657,0-33-1.343-33-3h0c0-1.657,1.343-3,3-3h32c1.657,0,3,1.343,3,3h0c0,1.657-1.343,3-3,3Z" fill="#fff" stroke="#000" stroke-linecap="round" stroke-linejoin="round" stroke-width="1.5"></path>
        <path d="m306.266,372.349h125.484v3.734c0,.836-.679,1.516-1.516,1.516h-123.969c-.836,0-1.516-.679-1.516-1.516v-2.219c0-.836.679-1.516,1.516-1.516Z" stroke="#000" stroke-linecap="round" stroke-linejoin="round" stroke-width="1.5"></path>
        <rect x="268.75" y="372.349" width="127" height="5.25" rx="2.021" ry="2.021" fill="#fff" stroke="#000" stroke-linecap="round" stroke-linejoin="round" stroke-width="1.5"></rect>
      </g>
      <g>
        <line x1="466.035" y1="396.841" x2="492.497" y2="687.269" fill="none" stroke="#000" stroke-linecap="round" stroke-linejoin="round" stroke-width="1.5"></line>
        <line x1="67.79" y1="396.841" x2="36.002" y2="688.618" fill="none" stroke="#000" stroke-linecap="round" stroke-linejoin="round" stroke-width="1.5"></line>
      </g>
      <line x1=".75" y1="687.474" x2="633.75" y2="687.474" fill="none" stroke="#000" stroke-linecap="round" stroke-linejoin="round" stroke-width="1.5"></line>
      <g>
        <line x1="566.035" y1="396.841" x2="597.497" y2="687.269" fill="none" stroke="#000" stroke-linecap="round" stroke-linejoin="round" stroke-width="1.5"></line>
        <line x1="167.79" y1="396.841" x2="141.002" y2="688.618" fill="none" stroke="#000" stroke-linecap="round" stroke-linejoin="round" stroke-width="1.5"></line>
      </g>
      <rect x="31.375" y="377.147" width="451.074" height="17.992" fill="#fff" stroke="#000" stroke-linecap="round" stroke-linejoin="round" stroke-width="1.5"></rect>
      <g>
        <rect x="436.886" y="338.397" width="28.767" height="38.79" fill="#B9FF66" stroke="#000" stroke-linecap="round" stroke-linejoin="round" stroke-width="1.5"></rect>
        <path d="m477.673,354.932c0,5.98-4.152,10.823-9.276,10.823-.955,0-1.875-.168-2.744-.484v-20.678c.868-.311,1.789-.48,2.744-.48,5.124,0,9.276,4.843,9.276,10.819Z" fill="none" stroke="#000" stroke-linecap="round" stroke-linejoin="round" stroke-width="1.5"></path>
      </g>
      <g>
        <rect x="406.542" y="70.928" width="187" height="156" fill="#B9FF66" stroke="#B9FF66" stroke-linecap="round" stroke-linejoin="round" stroke-width="1.5"></rect>
        <polygon points="588.542 221.82 401.542 220.82 401.542 64.82 588.542 64.82 588.542 221.82" fill="#fff" stroke="#B9FF66" stroke-linecap="round" stroke-linejoin="round" stroke-width="1.5"></polygon>
        <g>
          <g>
            <g>
              <path d="m360.749,94.558s-1.529-6.269-3.714-12.102c-1.906-5.089-2.548-9.404-3.733-9.056-2.159.634-1.301,6.268,1.446,14.359,0,0-5.73-14.464-8.018-14.514-3.56-.078,4.849,16.245,4.849,16.245,0,0-8.717-12.442-10.121-12.712-5.583-1.074,6.369,14.664,6.369,14.664,0,0-7.572-7.738-9.211-7.057-1.509.627,1.666,4.078,5.27,9.138,2.168,3.044,1.58,3.58,2.463,6.607,3.142,10.775,14.4,17.429,14.4,17.429" fill="#fff" stroke="#000" stroke-linecap="round" stroke-linejoin="round" stroke-width="1.5"></path>
              <path d="m368.043,113.892s-4.305-5.934-3.628-6.87c2.395-3.311-.386-9.529.278-12.047,1.36-5.153,3.238-6.536,1.125-8.457-1.011-.92-4.582,2.391-7.162,9.231" fill="#fff" stroke="#000" stroke-linecap="round" stroke-linejoin="round" stroke-width="1.5"></path>
            </g>
            <path d="m346.819,95.291s2.2-5.132,10.264-6.599" fill="#fff" stroke="#000" stroke-linecap="round" stroke-linejoin="round" stroke-width="1.5"></path>
          </g>
          <path d="m470,125.203l56.555,3.029c26.84-.936,12.313,25.285,12.335,25.751.305,6.705,0,67.948,0,67.948l-78.443-.162,3.578-61.365-26.105,8.399-31.282,9.592-.604.19c-6.288,1.919-13.358-.304-17.329-5.982l-40.063-57.285,21.978-16.652,36.913,45.045,56.84-17.657s2.788-1.159,5.63-.851Z" stroke="#000" stroke-linecap="round" stroke-linejoin="round" stroke-width="1.5"></path>
          <path d="m585.545,185.897c-.47.7-1.05,1.41-1.6,2.01l-31.41,33.72-9.55-.05,1.41,1.37-.04.07-1.47-1.44-8.92-8.78-3.18-3.12,23.21-28.85-31.25-20.98c-7.55-5.06-9.56-15.28-4.49-22.82,5.06-7.54,15.28-9.55,22.82-4.49l39.6,30.94.53.36c7.29,4.89,9.23,14.77,4.34,22.06Z"></path>
          <polyline points="523.065 221.467 532.735 211.607 533.965 212.797 542.985 221.577" fill="#fff" stroke="#000" stroke-linecap="round" stroke-linejoin="round" stroke-width="1.5"></polyline>
          <path d="m538.078,170.213l16.022,10.401-23.344,29.159,17.162,16.866,36.132-38.944c.554-.599,1.132-1.313,1.601-2.012,4.895-7.292,2.953-17.171-4.339-22.067l-.524-.352-42.034-32.381" fill="none" stroke="#000" stroke-linecap="round" stroke-linejoin="round" stroke-width="1.5"></path>
          <g>
            <g>
              <circle cx="501.689" cy="80.683" r="20.2"></circle>
              <path d="m514.469,101.169c3.105.274,5.847-2.055,6.125-5.201.266-3.011-1.824-5.674-4.726-6.138-1.242-10.345-8.825-18.814-19.486-19.755-8.015-.707-11.32,3.34-15.79,9.45-2.366,3.233-3.924,23.47-1.684,28.079,1.498,3.082,4.523,5.36,9.639,6.753l-.993,11.779s-1.853,10.864,10.574,11.967c14.025,1.245,13.676-10.301,13.676-10.301,0,0,2.017-25.314,2.557-26.647.036.004.071.012.107.015Z" fill="#fff" stroke="#000" stroke-linecap="round" stroke-linejoin="round" stroke-width="1.5"></path>
              <path d="m475.773,77.202l31.314,3.36s-2.454,7.537,4.334,11.715l.507,5.555,2.342.207,2.199-8.895-.052-19.687-16.64-7.433-18.277,4.351-5.727,10.827Z"></path>
              <circle cx="478.188" cy="69.681" r="13.071"></circle>
              <circle cx="493.552" cy="64.47" r="11.288"></circle>
              <path d="m488.674,114.373s5.197,1.6,10.66-1.055" fill="#fff" stroke="#000" stroke-linecap="round" stroke-linejoin="round" stroke-width="1.5"></path>
            </g>
            <path d="m498.01,90.255v-.098c.002-.624-.55-1.222-1.193-1.193-.648.029-1.191.524-1.193,1.193v.098c-.002.624.55,1.222,1.193,1.193.648-.029,1.191-.524,1.193-1.193h0Z"></path>
            <path d="m486.249,89.807v-.098c.002-.624-.55-1.222-1.193-1.193-.648.029-1.191.524-1.193,1.193v.098c-.002.624.55,1.222,1.193,1.193.648-.029,1.191-.524,1.193-1.193h0Z"></path>
            <g>
              <path d="m487.847,98.689c-.377,0-.733-.172-.969-.471-.254-.324-.33-.752-.202-1.144l.874-2.686c.085-.263.367-.407.63-.321s.406.368.321.63l-.874,2.687c-.034.104.009.18.038.216.028.036.102.086.2.089l2.472-.191c.282-.036.517.183.537.459.021.275-.185.517-.459.537l-2.473.191c-.032.003-.064.004-.096.004Z"></path>
              <path d="m487.848,98.544c-.333,0-.647-.152-.855-.415-.224-.286-.292-.663-.179-1.009l.875-2.686c.06-.186.261-.29.447-.228.186.061.288.261.228.447l-.875,2.686c-.04.122-.017.25.062.351.079.101.2.147.326.143l2.472-.191c.194-.012.365.131.381.326.015.195-.131.366-.326.381l-2.472.191c-.028.002-.056.003-.084.003Z"></path>
            </g>
            <g>
              <path d="m495.026,85.425s3.616-.861,5.166,1.636" fill="#fff"></path>
              <path d="m500.193,87.649c-.197,0-.389-.098-.5-.278-1.303-2.1-4.499-1.381-4.531-1.374-.314.076-.632-.122-.706-.437-.075-.316.12-.631.435-.707.164-.039,4.049-.926,5.801,1.897.171.276.086.638-.19.81-.096.06-.204.088-.309.088Z"></path>
            </g>
            <g>
              <path d="m481.476,86.821s2.676-2.58,5.28-1.219" fill="#fff"></path>
              <path d="m481.477,87.409c-.154,0-.307-.06-.423-.179-.226-.234-.219-.606.015-.831.122-.118,3.015-2.855,5.961-1.317.287.151.399.506.249.794-.151.287-.505.398-.794.249-2.202-1.153-4.576,1.099-4.599,1.121-.114.11-.261.165-.408.165Z"></path>
            </g>
            <path d="m499.334,113.318l-11.572,10.608.786-9.194s3.133.336,6.338-.231c3.205-.568,4.448-1.183,4.448-1.183Z" stroke="#000" stroke-linecap="round" stroke-linejoin="round" stroke-width="1.5"></path>
            <g>
              <path d="m493.113,104.443c-.698,0-1.504-.173-2.412-.634-.246-.125-.345-.427-.22-.673.126-.246.425-.343.673-.22,2.847,1.449,4.325-.554,4.386-.639.159-.224.471-.277.696-.119.225.159.279.468.122.693-.015.021-1.144,1.591-3.245,1.591Z"></path>
              <path d="m493.112,104.268c-.674,0-1.452-.167-2.332-.614-.16-.082-.224-.278-.143-.439.082-.16.279-.222.439-.143,2.992,1.52,4.541-.603,4.606-.694.105-.148.309-.181.454-.079.147.103.183.306.081.453-.015.02-1.09,1.516-3.103,1.516Z"></path>
            </g>
          </g>
        </g>
        <path d="m640.3,46.371c0,25.196-20.425,45.621-45.621,45.621-7.706,0-14.966-1.911-21.331-5.284l-24.29,4.284,8.006-18.799c-5.05-7.342-8.006-16.237-8.006-25.822,0-25.196,20.425-45.621,45.621-45.621s45.621,20.425,45.621,45.621Z" fill="#fff" stroke="#B9FF66" stroke-linecap="round" stroke-linejoin="round" stroke-width="1.5"></path>
        <circle cx="594.519" cy="46.371" r="26" fill="#B9FF66" stroke="#000" stroke-linecap="round" stroke-linejoin="round" stroke-width="1.5"></circle>
        <g>
          <circle cx="585.269" cy="38.928" r="2.25"></circle>
          <circle cx="603.769" cy="38.928" r="2.25"></circle>
        </g>
        <path d="m606.519,47.181c0,6.627-5.373,12-12,12s-12-5.373-12-12h24Z" fill="#fff" stroke="#000" stroke-linecap="round" stroke-linejoin="round" stroke-width="1.5"></path>
      </g>
      <g>
        <path d="m683.902,197.455c-.949,2.214-2.252,4.157-3.833,5.798-5.429,5.671-14.014,7.689-21.665,4.413-2.477-1.062-4.624-2.575-6.378-4.413-5.226-5.452-6.996-13.698-3.833-21.077,4.217-9.865,15.633-14.436,25.49-10.219,9.865,4.217,14.436,15.633,10.219,25.498Z" fill="#fff" stroke="#000" stroke-linecap="round" stroke-linejoin="round" stroke-width="1.5"></path>
        <circle cx="666.046" cy="181.369" r="6.434" fill="#fff" stroke="#000" stroke-linecap="round" stroke-linejoin="round" stroke-width="1.5"></circle>
        <path d="m680.069,203.253c-5.429,5.671-14.014,7.689-21.665,4.413-2.477-1.062-4.624-2.575-6.378-4.413,1.099-6.754,6.958-11.905,14.021-11.905s12.922,5.151,14.021,11.905Z" fill="#fff" stroke="#000" stroke-linecap="round" stroke-linejoin="round" stroke-width="1.5"></path>
      </g>
      <g>
        <circle cx="549.058" cy="296.976" r="31.238" fill="#fff" stroke="#000" stroke-linecap="round" stroke-linejoin="round" stroke-width="1.5"></circle>
        <g>
          <path d="m569.491,286.618v20.715c0,.309-.218.44-.312.482-.094.042-.337.116-.564-.091l-8.014-5.761v-9.974l8.014-5.761c.227-.207.47-.134.564-.091.094.042.312.172.312.482Z" fill="#fff" stroke="#000" stroke-linecap="round" stroke-linejoin="round" stroke-width="1.5"></path>
          <path d="m560.929,287.48v18.991c0,.774-.628,1.407-1.396,1.407h-29.511c-.768,0-1.396-.633-1.396-1.407v-18.991c0-.774.628-1.407,1.396-1.407h29.511c.768,0,1.396.633,1.396,1.407Z" fill="#fff" stroke="#000" stroke-linecap="round" stroke-linejoin="round" stroke-width="1.5"></path>
        </g>
      </g>
      <g>
        <path d="m396.144,327.593c-1.391,2.281-3.128,4.208-5.124,5.761-6.856,5.369-16.6,6.229-24.483,1.425-2.553-1.557-4.67-3.557-6.306-5.852-4.877-6.811-5.519-16.144-.881-23.747,6.187-10.165,19.443-13.382,29.6-7.196,10.165,6.187,13.382,19.443,7.194,29.608Z" fill="#fff" stroke="#000" stroke-linecap="round" stroke-linejoin="round" stroke-width="1.5"></path>
        <circle cx="379.078" cy="307.114" r="7.137" fill="#fff" stroke="#000" stroke-linecap="round" stroke-linejoin="round" stroke-width="1.5"></circle>
        <path d="m391.02,333.354c-6.856,5.369-16.6,6.229-24.483,1.425-2.553-1.557-4.67-3.557-6.306-5.852,2.273-7.243,9.519-11.973,17.274-10.858,7.755,1.115,13.375,7.695,13.515,15.285Z" fill="#fff" stroke="#000" stroke-linecap="round" stroke-linejoin="round" stroke-width="1.5"></path>
      </g>
      <g>
        <path d="m372.125,355.288l1.281-1.325,1.679,1.679c-.972.972-2.474.884-3.446-.088l-4.451-4.451c-.972-.972-1.06-2.474-.088-3.446l1.757,1.757-1.303,1.392"></path>
        <path d="m367.762,346.993l1.757,1.757c.358.358.367.934.021,1.303l-1.004,1.072,3.208,3.208.988-1.022c.175-.181.415-.284.666-.286.251-.002.493.097.671.274l1.679,1.679c.366.366.366.959,0,1.325-1.313,1.313-3.409,1.274-4.771-.088l-4.451-4.451c-1.363-1.363-1.401-3.458-.088-4.771.366-.366.959-.366,1.325,0Zm-.21,2.441l-.199-.199c-.006.125.005.251.032.377l.167-.178Zm5.954,5.954l-.088-.088-.083.086c.057.004.114.005.171.002Z"></path>
      </g>
      <g>
        <path d="m402.25,348.95v6.083c0,.091-.064.129-.092.141-.028.012-.099.034-.166-.027l-2.353-1.692v-2.929l2.353-1.692c.067-.061.138-.039.166-.027.028.012.092.051.092.141Z"></path>
        <path d="m390.663,348.79h8.663c.226,0,.41.184.41.41v5.583c0,.226-.184.41-.41.41h-8.663c-.228,0-.413-.185-.413-.413v-5.577c0-.228.185-.413.413-.413Z"></path>
      </g>
      <g>
        <g>
          <path d="m350.705,352.653c0,1.52-1.243,2.763-2.763,2.763h-.36c-1.52,0-2.763-1.243-2.763-2.763" fill="#fff"></path>
          <path d="m347.942,355.79h-.36c-1.73,0-3.137-1.407-3.137-3.137,0-.207.167-.374.374-.374s.374.167.374.374c0,1.317,1.072,2.389,2.389,2.389h.36c1.317,0,2.389-1.072,2.389-2.389,0-.207.167-.374.374-.374s.374.167.374.374c0,1.73-1.407,3.137-3.137,3.137Z"></path>
        </g>
        <rect x="345.724" y="346.075" width="4.077" height="8.22" rx="2.038" ry="2.038"></rect>
        <path d="m347.762,357.907c-.207,0-.374-.167-.374-.374v-2.118c0-.207.167-.374.374-.374s.374.167.374.374v2.118c0,.207-.167.374-.374.374Z"></path>
        <path d="m349.138,357.907h-2.752c-.207,0-.374-.167-.374-.374s.167-.374.374-.374h2.752c.207,0,.374.167.374.374s-.167.374-.374.374Z"></path>
      </g>
      <g>
        <path id="l" d="m402.646,687.2h-75.914l-11.492-27.504,45.717-11.545s8.332,19.382,23.564,20.646c24.038,2.001,18.125,18.403,18.125,18.403Z" fill="#fff" stroke="#000" stroke-linecap="round" stroke-linejoin="round" stroke-width="1.5"></path>
        <path id="l-2" data-name="l" d="m312.648,672.236l-107.672-194.997h-68.232c-22.171,0-46.37-8.494-45.663-38.301.526-22.155.428-31.535.428-31.535h123.496c14.874,0,40.871,8.333,47.247,20.708l112.527,226.893-62.131,17.232Z" fill="#B9FF66"></path>
        <line id="l-3" data-name="l" x1="329.09" y1="667.675" x2="219.307" y2="467.808" fill="none" stroke="#fafafa" stroke-linecap="round" stroke-linejoin="round" stroke-width="1.5"></line>
        <path id="st" d="m312.648,672.236l-107.672-194.997h-68.232c-22.171,0-46.37-8.494-45.663-38.301.526-22.155.428-31.535.428-31.535h123.496c14.874,0,40.871,8.333,47.247,20.708l112.527,226.893-62.131,17.232Z" fill="none" stroke="#000" stroke-linecap="round" stroke-linejoin="round" stroke-width="1.5"></path>
        <path id="l-4" data-name="l" d="m263.553,687.474h-11.792l-61.676-22.932,9.912-27.936,41.451,16.148s-1.559,9.766,12.114,16.602c19.372,9.691,9.99,18.118,9.99,18.118Z" fill="#fff" stroke="#000" stroke-linecap="round" stroke-linejoin="round" stroke-width="1.5"></path>
        <path id="l-5" data-name="l" d="m165.36,407.403h121.109c21.415,0,41.52,24.162,36.265,49.827-.966,4.718-70.051,201.495-70.051,201.495l-60.556-22.287,58.864-159.2h-85.632" fill="#B9FF66"></path>
        <path id="l-6" data-name="l" d="m209.133,642.436l64.228-178.71c.859-2.524-1.011-5.147-3.677-5.159l-45.221-.188c-18.232,0-38.949-13.796-33.086-51.104" fill="none" stroke="#fafafa" stroke-linecap="round" stroke-linejoin="round" stroke-width="1.5"></path>
        <path id="st-2" data-name="st" d="m165.36,407.403h121.109c23.214-.275,43.799,28.615,35.039,53.593-1.594,4.545-68.824,197.729-68.824,197.729l-60.556-22.287,58.864-159.2h-85.632" fill="none" stroke="#000" stroke-linecap="round" stroke-linejoin="round" stroke-width="1.5"></path>
        <g id="ha">
          <path id="sk" d="m304.906,338.374c-.187.182.807,4.568,5.768,6.116-.08-.243-.104-.518-.068-.832.123-1.156-1.611-3.637-3.322-5.765-1.292.183-2.252.352-2.378.48Z" fill="#fffdfd" stroke="#000" stroke-linecap="round" stroke-linejoin="round" stroke-width="1.5"></path>
          <path id="sk-2" data-name="sk" d="m307.284,337.894c1.711,2.128,3.445,4.609,3.322,5.765-.036.314-.011.589.068.832.463.14.952.264,1.489.35.788.133,1.657.204,2.62.184.311-.006.623-.012.92-.017-.421-2.113-2.269-5.146-3.957-7.573" fill="#fffdfd" stroke="#000" stroke-linecap="round" stroke-linejoin="round" stroke-width="1.5"></path>
          <path id="sk-3" data-name="sk" d="m311.747,337.434c1.688,2.427,3.536,5.46,3.957,7.573,1.918-.032,3.442-.025,4.64.202.194-2.691-1.093-5.645-2.326-7.606" fill="#fffdfd" stroke="#000" stroke-linecap="round" stroke-linejoin="round" stroke-width="1.5"></path>
          <path id="sk-4" data-name="sk" d="m333.317,338.872c-2.093-3.081-11.359-8.073-24.496-9.608-7.153-.836-40.454,3.03-47.346,3.849l-1.471-.095,21.088,28.691s26.003-9.072,30.083-9.736c7.171-1.167,13.502-2.007,12.341-4.525s-3.763-2.526-8.736-2.425c-8.542.173-10.107-6.428-9.871-6.65.393-.368,5.982-1.243,10.209-1.017,5.981.319,9.839,1.606,16.009,3.744,1.577.546,2.797-1.336,2.191-2.227Z" fill="#fffdfd" stroke="#000" stroke-linecap="round" stroke-linejoin="round" stroke-width="1.5"></path>
        </g>
        <g id="ha-2" data-name="ha">
          <path id="sk-5" data-name="sk" d="m361.885,280.291c.951-1.07,2.166-2.595,2.174-3.607.02-2.401-2.638-1.541-5.554.266l-.056.056c2.501-2.994-.437-3.653-1.35-3.321-7.471,2.717-14.497,5.035-19.589,6.654l-.114-.038.411-.117c3.337-3.218,5.572-6.444,3.63-7.596-2.111-1.252-7.233,3.28-13.532,6.387-6.378,3.145-26.056,11.442-26.056,11.442l19.43,21.165s16.078-5.754,22.722-9.007c11.458-5.611,17.754-9.699,18.729-14.228.152-.709-.084-2.163-2.248-1.177l-.02.012c2.464-2.088,4.198-3.98,4.571-4.776.83-1.774-.656-3.442-3.148-2.116Z" fill="#fffdfd"></path>
          <path id="st-3" data-name="st" d="m321.278,311.583s16.078-5.754,22.722-9.007c11.458-5.611,17.754-9.699,18.729-14.228.153-.709-.084-2.163-2.248-1.177" fill="none" stroke="#000" stroke-linecap="round" stroke-linejoin="round" stroke-width="1.5"></path>
          <path id="st-4" data-name="st" d="m301.848,290.418s19.679-8.297,26.056-11.442c6.299-3.106,11.421-7.638,13.532-6.387,1.942,1.152-.293,4.378-3.63,7.596" fill="none" stroke="#000" stroke-linecap="round" stroke-linejoin="round" stroke-width="1.5"></path>
          <path id="st-5" data-name="st" d="m347.897,294.549c7.856-2.312,16.257-10.265,17.136-12.142.831-1.775-.658-3.444-3.152-2.114" fill="none" stroke="#000" stroke-linecap="round" stroke-linejoin="round" stroke-width="1.5"></path>
          <path id="st-6" data-name="st" d="m345.72,289.848c6.607-2.409,12.517-5.622,15.591-8.925.931-1.001,2.737-3.006,2.747-4.239.02-2.401-2.638-1.541-5.554.266" fill="none" stroke="#000" stroke-linecap="round" stroke-linejoin="round" stroke-width="1.5"></path>
          <path id="st-7" data-name="st" d="m329.527,282.802s12.942-3.795,27.572-9.116c.936-.341,4.018.353,1.165,3.546-3.606,4.036-14.843,7.315-14.843,7.315" fill="none" stroke="#000" stroke-linecap="round" stroke-linejoin="round" stroke-width="1.5"></path>
        </g>
        <polyline id="bl" points="180.295 402.784 284.544 366.581 275.39 327.292 191.443 352.254" fill="#fff" stroke="#000" stroke-linecap="round" stroke-linejoin="round" stroke-width="1.5"></polyline>
        <path id="bl-2" data-name="bl" d="m309.712,280.594l-73.475,52.774-28.746-52.604-.003.004c-4.168-9.575-12.963-18.353-32.152-18.353l-65.607-.087c-3.582-.005-7.154.548-10.523,1.766-5.947,2.15-13.678,6.799-15.617,16.648-2.134,10.837,7.619,126.661,7.619,126.661h123.795c.174-4.47.328-8.751.463-12.85,8.452,4.194,18.937,3.326,26.68-3.072l93.496-77.248-25.93-33.64Z" fill="#fff" stroke="#000" stroke-linecap="round" stroke-linejoin="round" stroke-width="1.5"></path>
        <path id="st-8" data-name="st" d="m171.618,316.703l32.735,66.746c.824,1.655,1.849,3.242,3.077,4.729,2.276,2.755,5.026,4.889,8.033,6.382" fill="#fff" stroke="#000" stroke-linecap="round" stroke-linejoin="round" stroke-width="1.5"></path>
        <path d="m203.079,217.809c-1.18,8.04-7.61,9.44-9.65,14.41-2.1,5.14.6,12.05-3.24,17.04-5.36,6.95-11.25,4.28-15.58,7.63-1.75,1.35-3.11,3.41-4.44,5.52l-60.71-.08c-2.59,0-5.18.29-7.69.92-1.34-.3-2.57-.78-3.61-1.57-4.37-3.34-4.29-11.25-7.63-15.58-3.34-4.33-9.79-3.68-13.15-11.32-3.26-7.42,1.91-11.8,1.17-17.3-.72-5.32-6.77-8.09-5.7-16.38.95-7.43,8.03-7.93,10.06-12.9,2.11-5.14-2.35-10.84,2.83-18.55,4.28-6.38,11.25-4.29,15.58-7.63,4.33-3.34,3.38-10.3,11.31-13.15,7.29-2.61,11.01,3.84,16.51,3.1,5.32-.71,11.6-8.35,17.18-7.64,10.84,1.4,9.44,7.62,14.41,9.66,5.14,2.1,11.01-.87,17.04,3.24,7.51,5.12,4.28,11.25,7.63,15.58,3.34,4.32,10.11,4.23,13.15,11.31,3.19,7.44-1.91,11.8-1.17,17.31.72,5.32,6.52,10.81,5.7,16.38Z" fill="#B9FF66" stroke="#000" stroke-linecap="round" stroke-linejoin="round" stroke-width="1.5"></path>
        <path id="h_6_h" d="m175.427,205.158s-10.755-2.703-17.658-11.223c0,0-2.112,7.407-14.024,7.158-11.912-.249-12.226,4.693-14.394,9.122s-10.273,3.43-10.273,3.43l-13.487-10.231,16.444-26.54,46.866,1.534,2.982,14.459,3.543,12.291Z" fill="#B9FF66"></path>
        <path d="m183.848,217.298l-3.382-4.357c.293-6.177.238-12.259-.228-16.502-.26-2.39-.77-4.13-1.18-5.11-3.74-8.83-10.46-13.03-22.34-13.2-15.29-.21-28.08,10.26-30.27,23.72-.5,3.07-.89,19.01-.89,21.09-.03,10.1-.37,38.08-.37,38.08,0,0,0,.5.09,1.33l35.79.05v-.17l.35-17.54c8.583-.429,12.52-4.18,15.2-8.51,1.538-2.49,2.695-8.958,3.367-16.263l3.447-.746c.766-.298.983-1.278.416-1.872Z" fill="#fff" stroke="#000" stroke-linecap="round" stroke-linejoin="round" stroke-width="1.5"></path>
        <path d="m179.167,206.818l.014-.154c.008-.207-.035-.399-.129-.578-.06-.186-.164-.347-.31-.483-.136-.146-.297-.25-.483-.31-.179-.094-.371-.137-.578-.129l-.399.054c-.254.071-.475.2-.662.386l-.235.304c-.136.234-.204.486-.205.757l-.014.154c-.008.207.035.399.129.578.06.186.164.347.31.483.136.146.297.25.483.31.179.094.371.137.578.129l.399-.054c.254-.071.475-.2.662-.386l.235-.304c.136-.234.204-.486.205-.757h0Z"></path>
        <path d="m179.799,200.256s-5.701-1.1-7.096,3.314" fill="#fff" stroke="#000" stroke-linecap="round" stroke-linejoin="round" stroke-width="1.5"></path>
        <path d="m153.698,243.68c4.233,1.639,7.615,1.06,7.615,1.06" fill="none" stroke="#000" stroke-linecap="round" stroke-linejoin="round" stroke-width="1.5"></path>
        <polygon points="161.175 254.729 153.247 244.065 161.345 244.901 161.175 254.729"></polygon>
        <path d="m171.79,223.21s1.253,4.597,7.052,3.862" fill="#fff" stroke="#000" stroke-linecap="round" stroke-linejoin="round" stroke-width="1.5"></path>
        <path d="m184.173,185.528l-8.856-18.22-62.932,1.157-12.577,94.042c7.422,2.37,11.717.12,15.608-.178,5.565-.425,10.215,5.663,14.404,4.887,5.331-.987,8.005-6.726,11.519-9.528,3.923-3.128,9.941-4.575,12.095-8.807,2.321-4.559-.073-10.75.828-15.116,1.661-8.052,5.752-6.838,5.528-14.123,0,0-3.066-8.719.96-13.573,2.943-3.548,8.022,1.029,9.31-9.006,1.481-11.545,15.428-1.645,14.113-11.536Z" fill="#B9FF66"></path>
        <path id="h_6_h-2" data-name="h_6_h" d="m160.749,206.07c2.943-3.548,8.022,1.029,9.31-9.006.87-6.784,5.26-6.16,8.927-6.501" fill="none" stroke="#000" stroke-linecap="round" stroke-linejoin="round" stroke-width="1.5"></path>
        <path d="m159.789,219.643c.224,7.285-3.867,6.071-5.528,14.123-.901,4.366,1.494,10.557-.828,15.116-2.154,4.231-8.173,5.679-12.095,8.807-3.514,2.802-6.188,8.541-11.519,9.528-4.189.776-8.823-4.958-14.404-4.887-4.247.054-8.185,2.548-15.608.178" fill="none" stroke="#000" stroke-linecap="round" stroke-linejoin="round" stroke-width="1.5"></path>
        <path d="m161.209,223.407c-4.731-.039-8.535-3.957-8.496-8.752.038-4.589,3.584-8.307,8.036-8.585" fill="#fff" stroke="#000" stroke-linecap="round" stroke-linejoin="round" stroke-width="1.5"></path>
        <g>
          <path d="m184.661,469.936l-36.371-146.596c-.8-3.445-3.87-5.883-7.406-5.883H28.982c-4.89,0-8.508,4.549-7.409,9.313l38.853,158.362c.796,3.45,3.868,5.894,7.409,5.894h190.072c4.199,0,7.603-3.404,7.603-7.603h0c0-4.199-3.404-7.603-7.603-7.603h-65.839c-3.537,0-6.606-2.438-7.406-5.883Z" fill="#fff" stroke="#000" stroke-linecap="round" stroke-linejoin="round" stroke-width="1.5"></path>
          <line x1="82.967" y1="491.026" x2="65.148" y2="687.405" fill="#fff" stroke="#000" stroke-linecap="round" stroke-linejoin="round" stroke-width="1.5"></line>
          <line x1="238.898" y1="491.026" x2="275.286" y2="686.319" fill="#fff" stroke="#000" stroke-linecap="round" stroke-linejoin="round" stroke-width="1.5"></line>
        </g>
      </g>
    </g>
  </g>
</svg>